<svg width="500" height="500" viewBox="0 0 500 500" fill="none" xmlns="http://www.w3.org/2000/svg">
<rect y="500" width="500" height="100" transform="rotate(-90 0 500)" fill="#F6E05E" fill-opacity="0.7"/>
<rect y="400" width="400" height="100" transform="rotate(-90 0 400)" fill="#4FD1C5"/>
<path d="M0 400H400V500H0V400Z" fill="#FC8181"/>
<rect width="500" height="100" fill="#68D391"/>
<rect x="100" width="400" height="100" fill="#F6E05E"/>
<rect x="400" y="500" width="400" height="100" transform="rotate(-90 400 500)" fill="#F687B3" fill-opacity="0.7"/>
<rect y="400" width="500" height="100" fill="#FC8181" fill-opacity="0.2"/>
<rect x="400" y="400" width="400" height="100" transform="rotate(-90 400 400)" fill="#F687B3"/>
<path d="M300.664 281.765L324.769 125H375L330.398 375H277.858L249.711 232.486L222.142 375H169.746L125 125H175.375L199.48 281.765L228.349 125H271.363L300.664 281.765Z" fill="#575757"/>
</svg>
